<?xml version="1.0" encoding="utf-8"?>
<!-- Generator: Adobe Illustrator 27.4.1, SVG Export Plug-In . SVG Version: 6.00 Build 0)  -->
<svg version="1.1" id="Layer_1" xmlns="http://www.w3.org/2000/svg" xmlns:xlink="http://www.w3.org/1999/xlink" x="0px" y="0px"
	 viewBox="0 0 150 100" style="enable-background:new 0 0 150 100;" xml:space="preserve">
<style type="text/css">
	.st0{fill:#FFFFFF;}
</style>
<g>
	<path class="st0" d="M36.6,50c4.2,0,7.8-2.3,9.7-5.6c-1.9-3.4-5.6-5.6-9.7-5.6c-2.5,0-4.9,0.8-6.8,2.2c-2.7,2.1-4.5,5.3-4.5,9
		s1.8,7,4.5,9c2.7-2.1,4.5-5.3,4.5-9c0-0.1,0-0.2,0-0.2C35,49.8,35.8,50,36.6,50z M29.4,43.7c0.1-0.2,0.3-0.3,0.5-0.5
		c1,1.1,1.9,2.5,2.3,4.1c-1.3-0.7-2.5-1.7-3.4-2.9C29,44,29.2,43.8,29.4,43.7z M29.8,56.8C28.1,55,27,52.5,27,50
		c0-1.5,0.3-2.8,0.9-4.1c1.2,1.5,2.9,2.7,4.7,3.3c0,0.2,0,0.5,0,0.7C32.6,52.5,31.6,55,29.8,56.8z M31.1,42c1.5-1.1,3.4-1.7,5.5-1.7
		c3.2,0,6,1.5,7.7,3.9c-1.7,2.4-4.6,3.9-7.7,3.9c-0.8,0-1.7-0.1-2.4-0.3C33.7,45.7,32.7,43.7,31.1,42z"/>
	<path class="st0" d="M34.3,61c0.7,0.1,1.5,0.2,2.2,0.2c6.1,0,11.1-4.9,11.3-11c-0.7-0.1-1.5-0.2-2.2-0.2C39.4,50,34.4,54.8,34.3,61
		z M36.6,59.5c-0.1,0-0.3,0-0.4,0c0.8-4.5,4.7-7.9,9.4-7.9c0.1,0,0.3,0,0.4,0C45.2,56.2,41.3,59.5,36.6,59.5z"/>
	<path class="st0" d="M59.8,43.8c-1.4,0-2.6,0.4-3.4,1.3c-1,1-1.5,2.7-1.5,4.8c0,2.4,0.5,3.9,1.7,5c0.8,0.7,1.9,1.1,3.2,1.1
		s2.3-0.3,3-0.8c0.9-0.7,1.4-1.6,1.5-2.7c0-0.3-0.1-0.5-0.4-0.5h-1.2c-0.3,0-0.5,0.1-0.5,0.4c-0.1,0.4-0.4,0.7-0.7,1
		c-0.4,0.3-1,0.5-1.7,0.5s-1.3-0.2-1.7-0.5c-0.7-0.5-1-1.3-1-2.5c0-0.1,0.1-0.2,0.2-0.2h6.6c0.3,0,0.5-0.2,0.5-0.5v-1.4
		c0-1.6-0.5-2.8-1.3-3.7C62.2,44.2,61.1,43.8,59.8,43.8z M62.1,48.7h-4.8c-0.1,0-0.2-0.1-0.2-0.2c0-0.9,0.3-1.6,0.8-2.1
		s1.1-0.7,1.9-0.7c0.7,0,1.4,0.3,1.8,0.7c0.5,0.5,0.8,1.2,0.8,2.1C62.4,48.5,62.3,48.7,62.1,48.7z"/>
	<path class="st0" d="M75.5,51.5h-1.3c-0.3,0-0.4,0.1-0.4,0.4c0,0.6-0.2,1.1-0.6,1.4c-0.4,0.3-1,0.5-1.6,0.5c-0.9,0-1.7-0.3-2.1-0.9
		c-0.5-0.7-0.6-1.7-0.6-3c0-1.6,0.1-2.5,0.6-3.1c0.4-0.6,1.2-0.9,2.1-0.9c0.6,0,1.2,0.2,1.6,0.5c0.4,0.4,0.7,0.9,0.7,1.5
		c0,0.2,0.2,0.4,0.4,0.4h1.2c0.2,0,0.4-0.2,0.4-0.5c0-1.1-0.5-2.2-1.3-2.9c-0.8-0.7-1.8-1.1-3.1-1.1S68.9,44.2,68,45
		c-1.2,1.2-1.4,2.8-1.4,4.8c0,1.9,0.2,3.7,1.5,4.8c0.9,0.8,2.1,1.2,3.4,1.2c1.1,0,2.2-0.3,3-0.9c0.9-0.7,1.4-1.8,1.4-3
		C75.9,51.7,75.8,51.5,75.5,51.5z"/>
	<path class="st0" d="M82.5,43.8c-1.8,0-3.2,0.7-4,1.9c-0.8,1.2-0.9,2.5-0.9,4.1s0.1,2.9,0.9,4.1c0.8,1.2,2.1,1.9,4,1.9
		c1.8,0,3.2-0.7,4-1.9c0.8-1.2,0.9-2.5,0.9-4.1s-0.1-2.9-0.9-4.1C85.7,44.5,84.3,43.8,82.5,43.8z M84.6,52.7
		c-0.4,0.6-1.1,1.1-2.1,1.1c-1.1,0-1.8-0.5-2.1-1.1c-0.4-0.6-0.5-1.5-0.5-2.9s0.1-2.2,0.5-2.9c0.4-0.6,1.1-1.1,2.1-1.1
		c1.1,0,1.8,0.5,2.1,1.1c0.4,0.6,0.5,1.5,0.5,2.9S85.1,52,84.6,52.7z"/>
	<path class="st0" d="M100.8,43.8c-1.8,0-3.2,0.7-4,1.9c-0.8,1.2-0.9,2.5-0.9,4.1s0.1,2.9,0.9,4.1c0.8,1.2,2.1,1.9,4,1.9
		s3.2-0.7,4-1.9c0.8-1.2,0.9-2.5,0.9-4.1s-0.1-2.9-0.9-4.1C104,44.5,102.6,43.8,100.8,43.8z M102.9,52.7c-0.4,0.6-1.1,1.1-2.1,1.1
		s-1.8-0.5-2.2-1.1c-0.4-0.6-0.5-1.5-0.5-2.9s0.1-2.2,0.5-2.9c0.4-0.6,1.1-1.1,2.1-1.1s1.8,0.5,2.1,1.1c0.4,0.6,0.5,1.5,0.5,2.9
		S103.3,52,102.9,52.7z"/>
	<path class="st0" d="M114.3,44h-0.5c-2.5,0-2.9,1.3-3.5,1.3c-0.3,0-0.3-0.5-0.4-0.8s-0.2-0.5-0.5-0.5h-0.8c-0.3,0-0.5,0.2-0.5,0.5
		v10.7c0,0.3,0.2,0.5,0.5,0.5h1.2c0.3,0,0.5-0.2,0.5-0.5v-5.6c0-2.5,1.7-3.4,3.5-3.4h0.5c0.3,0,0.5-0.2,0.5-0.5v-1.2
		C114.8,44.2,114.5,44,114.3,44z"/>
	<path class="st0" d="M124.4,44h-0.8c-0.2,0-0.3,0-0.3,0.2c-0.2,0.4-0.3,0.5-0.5,0.5c-0.5,0-0.8-0.9-2.7-0.9c-1.8,0-3.2,0.7-3.8,2
		c-0.5,1-0.7,2.3-0.7,3.9c0,1.9,0.2,3,0.7,4c0.7,1.2,2,2,3.6,2c1.5,0,2-0.7,2.5-0.7c0.3,0,0.4,0.2,0.4,0.7v0.7
		c0,1.2-0.9,2.1-2.2,2.1c-1.1,0-1.9-0.4-2.1-1.2c-0.1-0.3-0.2-0.5-0.6-0.5h-1.1c-0.3,0-0.5,0.2-0.4,0.5c0.3,1.9,2,3.2,4.2,3.2
		c2.4,0,4.3-1.8,4.3-4.2V44.5C124.9,44.2,124.7,44,124.4,44z M122.5,52.5c-0.4,0.7-1.2,1.1-2.2,1.1s-1.8-0.4-2.2-1.1
		c-0.4-0.8-0.4-1.5-0.4-2.8s0-2.1,0.4-2.8s1.2-1.1,2.2-1.1s1.8,0.4,2.2,1.1c0.4,0.7,0.4,1.5,0.4,2.8S122.9,51.8,122.5,52.5z"/>
	<path class="st0" d="M91.6,52.3c-0.8,0-1.5,0.7-1.5,1.5c0,0.8,0.7,1.5,1.5,1.5s1.5-0.7,1.5-1.5C93,53,92.4,52.3,91.6,52.3z"/>
</g>
</svg>
