<?xml version="1.0" encoding="utf-8"?>
<!-- Generator: Adobe Illustrator 27.4.1, SVG Export Plug-In . SVG Version: 6.00 Build 0)  -->
<svg version="1.1" id="Layer_1" xmlns="http://www.w3.org/2000/svg" xmlns:xlink="http://www.w3.org/1999/xlink" x="0px" y="0px"
	 viewBox="0 0 200 200" style="enable-background:new 0 0 200 200;" xml:space="preserve">
<style type="text/css">
	.st0{fill:#888888;}
</style>
<g>
	<path class="st0" d="M33,137.9c-0.6,0-1.2-0.2-1.6-0.7c-0.5-0.5-0.7-1-0.7-1.7c0-0.3,0.1-0.6,0.2-1l27.3-73.1
		c0.2-0.8,0.7-1.4,1.3-2c0.6-0.6,1.5-0.9,2.7-0.9h12.4c1.1,0,2,0.3,2.6,0.9c0.6,0.6,1.1,1.2,1.4,2l27.3,73.1c0.1,0.4,0.1,0.7,0.1,1
		c0,0.7-0.2,1.2-0.7,1.7c-0.5,0.5-1,0.7-1.6,0.7h-9.9c-1.1,0-1.8-0.2-2.3-0.7c-0.5-0.5-0.8-1-1-1.4l-5.3-13.8H51.5l-5.3,13.8
		c-0.2,0.5-0.5,0.9-1,1.4c-0.5,0.5-1.3,0.7-2.3,0.7H33z M55.4,108.8h25.7l-12.9-35L55.4,108.8z"/>
	<path class="st0" d="M132.2,139c-3.9,0-7.5-0.8-10.7-2.3c-3.2-1.5-5.7-3.6-7.5-6.2c-1.9-2.6-2.8-5.5-2.8-8.8
		c0-5.3,2.2-9.5,6.5-12.6c4.3-3.1,9.9-5.2,16.9-6.3l15.5-2.3v-2.4c0-3.2-0.8-5.6-2.4-7.4c-1.6-1.7-4.3-2.6-8.2-2.6
		c-2.7,0-4.9,0.5-6.6,1.6c-1.7,1.1-3,2.6-3.8,4.4c-0.6,1-1.5,1.5-2.6,1.5h-9c-0.8,0-1.5-0.2-1.9-0.7c-0.4-0.5-0.6-1.1-0.6-1.8
		c0.1-1.2,0.6-2.7,1.5-4.4c0.9-1.7,2.4-3.4,4.3-5c1.9-1.6,4.4-3,7.5-4.1c3.1-1.1,6.8-1.7,11.2-1.7c4.8,0,8.8,0.6,12.1,1.8
		c3.3,1.2,5.9,2.7,7.9,4.7c2,2,3.4,4.3,4.3,6.9c0.9,2.6,1.4,5.4,1.4,8.4v35.6c0,0.8-0.3,1.4-0.8,1.9c-0.5,0.5-1.2,0.8-1.9,0.8h-9.2
		c-0.8,0-1.5-0.3-2-0.8c-0.5-0.5-0.7-1.2-0.7-1.9v-4.4c-1,1.4-2.3,2.7-4,4c-1.7,1.3-3.7,2.3-6.1,3.1
		C138.2,138.6,135.4,139,132.2,139z M136,128.2c2.6,0,5-0.6,7.2-1.7s3.9-2.9,5.1-5.3c1.2-2.4,1.9-5.4,1.9-9v-2.4l-11.3,1.8
		c-4.5,0.7-7.8,1.8-10,3.3c-2.2,1.5-3.3,3.4-3.3,5.6c0,1.7,0.5,3.1,1.5,4.3c1,1.2,2.3,2,3.9,2.6C132.6,127.9,134.3,128.2,136,128.2z
		"/>
</g>
</svg>
