<?xml version="1.0" encoding="utf-8"?>
<!-- Generator: Adobe Illustrator 27.4.1, SVG Export Plug-In . SVG Version: 6.00 Build 0)  -->
<svg version="1.1" id="Layer_1" xmlns="http://www.w3.org/2000/svg" xmlns:xlink="http://www.w3.org/1999/xlink" x="0px" y="0px"
	 viewBox="0 0 200 200" style="enable-background:new 0 0 200 200;" xml:space="preserve">
<style type="text/css">
	.st0{fill:#888888;}
</style>
<g>
	<path class="st0" d="M55.8,139h-28v-4.3c1.2-0.8,2.5-1.4,3.9-2c1.4-0.6,2.8-1,4.1-1.3l29.3-73.1h8.4l28.5,73.1
		c1.5,0.3,3,0.7,4.5,1.3c1.5,0.6,2.8,1.2,4,2v4.3H74.9v-4.3c1.4-0.7,3-1.3,4.6-1.9c1.7-0.6,3.2-1.1,4.8-1.4l-6.6-18H52.6l-6.7,18
		c3.5,0.5,6.8,1.5,9.9,3.3V139z M55.3,106h20.1L68,84.3l-2.2-9.8h-0.2l-2.5,10L55.3,106z"/>
	<path class="st0" d="M163.7,122.6c0,1.7,0,3.1,0.1,4.3c0,1.2,0.1,2.5,0.3,3.9l7.8,1.1v4c-0.9,0.5-2.1,0.9-3.7,1.4
		c-1.6,0.5-3.2,0.9-4.9,1.3c-1.7,0.4-3.4,0.8-5,1c-1.7,0.3-3.1,0.5-4.4,0.6H150c-0.8-1.7-1.2-3.5-1.4-5.2c-0.2-1.7-0.3-3.9-0.3-6.3
		h-0.6c-0.4,1.5-1,3-1.9,4.4c-0.9,1.4-2.1,2.6-3.5,3.7c-1.4,1.1-3,2-4.9,2.7c-1.9,0.7-4,1-6.3,1c-2.5,0-4.8-0.4-6.9-1.1
		c-2.1-0.8-4-1.8-5.6-3.2c-1.6-1.4-2.8-3-3.7-4.9s-1.4-4.1-1.4-6.5c0-3.4,0.6-6.2,1.9-8.4c1.3-2.2,3.3-4,6.1-5.4
		c2.8-1.4,6.3-2.4,10.7-3.1c4.3-0.7,9.6-1.2,15.8-1.5c0.6-6.5,0.3-11.3-0.8-14.3c-1.1-3-3.6-4.5-7.4-4.5c-2.3,0-4.5,0.4-6.5,1.1
		l-5.3,13.6h-5c-0.6-0.9-1.2-1.9-1.8-3.1c-0.6-1.2-1.1-2.4-1.6-3.7c-0.5-1.3-0.9-2.7-1.2-4c-0.3-1.4-0.6-2.7-0.7-4
		c2.9-2,6.6-3.5,11.1-4.6c4.5-1.1,9.3-1.7,14.4-1.7c4.3,0,7.8,0.5,10.5,1.4c2.7,0.9,4.9,2.2,6.4,3.9c1.5,1.6,2.6,3.5,3.2,5.7
		c0.6,2.2,0.9,4.5,0.9,7c0,4.5-0.1,8.6-0.3,12.3C163.8,114.9,163.7,118.7,163.7,122.6z M138.2,131.3c1.6,0,2.9-0.3,4.1-0.9
		c1.1-0.6,2.1-1.3,2.9-2.2c0.8-0.8,1.4-1.7,1.8-2.7c0.4-1,0.7-1.9,1-2.6v-11.3c-3.6,0.1-6.5,0.3-8.7,0.7c-2.3,0.4-4,1-5.3,1.9
		c-1.3,0.9-2.2,2-2.7,3.3c-0.5,1.3-0.7,2.9-0.7,4.8c0,2.9,0.7,5.1,2,6.7C133.9,130.5,135.8,131.3,138.2,131.3z"/>
</g>
</svg>
