<?xml version="1.0" encoding="utf-8"?>
<!-- Generator: Adobe Illustrator 27.4.1, SVG Export Plug-In . SVG Version: 6.00 Build 0)  -->
<svg version="1.1" id="Layer_1" xmlns="http://www.w3.org/2000/svg" xmlns:xlink="http://www.w3.org/1999/xlink" x="0px" y="0px"
	 viewBox="0 0 72 48" style="enable-background:new 0 0 72 48;" xml:space="preserve">
<style type="text/css">
	.st0{fill-rule:evenodd;clip-rule:evenodd;}
</style>
<g>
	<path class="st0" d="M36,24c4.2,0,7.8-2.3,9.7-5.6c-1.9-3.4-5.5-5.7-9.7-5.7c-2.5,0-4.9,0.9-6.8,2.3c-2.7,2-4.5,5.3-4.5,9
		s1.8,7,4.5,9c2.8-2,4.6-5.3,4.6-9c0-0.1,0-0.2,0-0.2C34.5,23.9,35.2,24,36,24z M28.8,17.7c0.1-0.2,0.3-0.3,0.5-0.5
		c1.1,1.1,2,2.5,2.4,4.1c-1.4-0.7-2.5-1.7-3.4-2.9C28.4,18.1,28.6,17.9,28.8,17.7z M29.2,30.8c-1.7-1.8-2.8-4.2-2.8-6.8
		c0-1.5,0.3-2.8,0.9-4.1c1.2,1.5,2.9,2.7,4.7,3.3c0,0.2,0,0.5,0,0.7C32.1,26.6,31,29,29.2,30.8z M30.5,16.1c1.6-1,3.5-1.7,5.5-1.7
		c3.2,0,6,1.5,7.7,3.9c-1.7,2.4-4.6,3.9-7.7,3.9c-0.8,0-1.7-0.1-2.4-0.3C33.2,19.7,32.1,17.7,30.5,16.1z"/>
	<path class="st0" d="M45,24c-6.1,0-11.1,4.9-11.3,11c0.7,0.1,1.5,0.2,2.2,0.2c6.1,0,11.1-4.9,11.3-11C46.5,24.1,45.8,24,45,24z
		 M36,33.6c-0.1,0-0.3,0-0.4,0c0.8-4.5,4.7-7.9,9.4-7.9c0.1,0,0.3,0,0.4,0C44.6,30.2,40.7,33.6,36,33.6z"/>
</g>
</svg>
